<?xml version="1.0" standalone="no"?>
<!DOCTYPE svg PUBLIC "-//W3C//DTD SVG 20010904//EN"
 "http://www.w3.org/TR/2001/REC-SVG-20010904/DTD/svg10.dtd">
<svg version="1.0" xmlns="http://www.w3.org/2000/svg"
 width="3167.000000pt" height="3167.000000pt" viewBox="0 0 3167.000000 3167.000000"
 preserveAspectRatio="xMidYMid meet">

<g transform="translate(0.000000,3167.000000) scale(0.100000,-0.100000)"
fill="#000000" stroke="none">
<path d="M15365 31660 c-3699 -119 -7183 -1488 -9960 -3915 -500 -436 -1074
-1012 -1516 -1521 -2835 -3259 -4215 -7538 -3819 -11839 305 -3308 1640 -6433
3819 -8939 374 -430 873 -941 1289 -1319 1847 -1677 4041 -2888 6437 -3550
1954 -541 4001 -701 6015 -471 3807 434 7332 2238 9913 5072 2964 3257 4439
7605 4067 11992 -299 3524 -1763 6836 -4167 9430 -2626 2833 -6202 4608
-10048 4989 -642 64 -1417 91 -2030 71z m4058 -2914 c213 -192 386 -351 383
-353 -2 -2 -126 10 -276 27 -149 17 -279 30 -288 28 -9 -2 118 -19 283 -37
165 -19 301 -35 303 -36 7 -6 -59 -1161 -67 -1181 -5 -12 -951 -646 -2275
-1524 -1246 -827 -2263 -1506 -2261 -1508 2 -3 1013 665 2246 1484 1233 819
2249 1493 2258 1498 14 8 14 7 0 -10 -9 -10 -814 -1016 -1789 -2234 -975
-1218 -1783 -2225 -1795 -2238 l-22 -23 -466 729 c-256 400 -469 736 -472 744
-4 11 1 20 14 28 11 6 20 14 18 18 -3 13 3977 4282 3984 4274 4 -4 129 -283
280 -619 150 -337 274 -611 276 -609 3 2 -118 278 -268 612 -149 335 -272 616
-273 624 0 8 -4 17 -7 20 -4 3 -48 136 -98 295 -51 160 -98 309 -106 333 l-14
43 22 -18 c13 -10 197 -175 410 -367z m177 -3052 c-88 -797 -161 -1457 -162
-1467 -2 -13 -422 -217 -1568 -763 -1893 -902 -1716 -819 -1699 -794 25 36
3584 4478 3586 4476 2 -1 -69 -655 -157 -1452z m-6657 287 c752 -596 1364
-1087 1362 -1091 -3 -4 22 -24 55 -44 l60 -37 -24 -42 c-39 -69 -461 -829
-480 -866 -10 -19 -13 -30 -6 -26 7 4 11 3 9 -2 -14 -37 -1525 -2853 -1531
-2853 -11 0 -1890 3760 -1886 3775 2 7 203 429 447 939 l445 926 34 -21 c19
-11 671 -409 1449 -885 778 -476 1416 -864 1419 -861 2 2 -642 399 -1432 883
-790 483 -1443 883 -1450 889 -10 8 3 51 64 207 42 109 82 197 88 195 6 -1
625 -490 1377 -1086z m1826 -1246 c174 -37 324 -69 334 -73 13 -6 -43 -62
-270 -269 -159 -144 -289 -259 -290 -255 -5 13 -103 633 -103 648 0 8 3 14 7
14 3 0 149 -29 322 -65z m4602 -632 c-26 -43 -510 -825 -1076 -1738 -565 -913
-1032 -1665 -1039 -1672 -8 -9 -144 220 -561 950 -302 529 -551 966 -553 972
-2 8 3249 1565 3270 1565 4 0 -15 -35 -41 -77z m-110 -1308 l-169 -1340 -281
-689 c-155 -379 -283 -692 -286 -694 -3 -3 -5 399 -5 894 l0 899 452 1142
c249 628 454 1138 455 1135 2 -4 -73 -610 -166 -1347z m-753 -2279 l-3 -444
-292 596 -292 597 292 293 292 292 3 -445 c1 -245 1 -645 0 -889z m-4989 209
c-225 -567 -414 -1039 -419 -1050 -7 -14 -9 186 -5 620 l5 640 412 412 c227
227 413 411 415 410 1 -2 -182 -466 -408 -1032z m4690 -77 c162 -331 294 -607
294 -613 0 -5 -330 -503 -732 -1105 -653 -976 -732 -1090 -727 -1050 3 25 51
653 106 1395 55 743 104 1360 108 1372 6 20 637 603 651 603 4 0 138 -271 300
-602z m-5705 127 c61 -113 113 -205 117 -205 4 0 110 81 236 179 125 99 228
178 229 178 3 -7 -17 -1322 -21 -1325 -3 -3 -38 -11 -77 -18 -73 -13 -73 -13
-13 -8 33 3 68 7 78 10 16 5 17 -85 17 -1785 l0 -1790 -40 -46 -40 -47 -15 34
c-7 18 -342 789 -744 1713 -407 937 -725 1682 -719 1684 6 2 7 6 1 10 -9 6
865 1621 877 1621 3 -1 54 -93 114 -205z m4627 -1570 l-101 -1330 -122 -1017
c-67 -559 -124 -1016 -125 -1014 -2 1 -43 665 -93 1475 l-91 1472 313 891
c172 490 314 882 316 872 2 -11 -42 -618 -97 -1349z m517 -1277 c-407 -1019
-763 -1911 -791 -1982 -28 -70 -53 -124 -54 -119 -2 5 51 453 117 995 l120
987 672 986 c370 542 673 985 674 985 1 0 -331 -834 -738 -1852z m6087 -2378
c1056 -28 1956 -54 2000 -58 78 -7 37 -15 -2030 -381 -1160 -206 -2118 -377
-2128 -379 -21 -5 -20 -42 -1 666 l6 213 117 -6 c64 -3 980 -28 2036 -55z
m-8087 -1708 c-1 -5 -55 -84 -117 -175 l-115 -167 -611 0 -612 0 -116 175
-117 175 846 0 c465 0 844 -4 842 -8z"/>
<path d="M12820 19560 c-27 -6 -29 -8 -10 -8 14 -1 43 3 65 7 33 7 35 9 10 9
-16 -1 -46 -4 -65 -8z"/>
<path d="M12655 19535 c-38 -7 -59 -13 -45 -13 14 0 59 5 100 12 41 8 62 14
45 14 -16 0 -61 -6 -100 -13z"/>
<path d="M12455 19505 c-38 -7 -59 -13 -45 -13 14 0 59 5 100 12 41 8 62 14
45 14 -16 0 -61 -6 -100 -13z"/>
<path d="M12290 19480 c-27 -6 -29 -8 -10 -8 14 -1 43 3 65 7 33 7 35 9 10 9
-16 -1 -46 -4 -65 -8z"/>
<path d="M12125 19455 c-38 -7 -59 -13 -45 -13 14 0 59 5 100 12 41 8 62 14
45 14 -16 0 -61 -6 -100 -13z"/>
<path d="M11960 19430 c-27 -6 -29 -8 -10 -8 14 -1 43 3 65 7 33 7 35 9 10 9
-16 -1 -46 -4 -65 -8z"/>
<path d="M11795 19405 c-38 -7 -59 -13 -45 -13 14 0 59 5 100 12 41 8 62 14
45 14 -16 0 -61 -6 -100 -13z"/>
<path d="M11630 19380 c-27 -6 -29 -8 -10 -8 14 -1 43 3 65 7 33 7 35 9 10 9
-16 -1 -46 -4 -65 -8z"/>
<path d="M11543 19363 c9 -2 25 -2 35 0 9 3 1 5 -18 5 -19 0 -27 -2 -17 -5z"/>
</g>
</svg>
